<svg width="15" height="15" viewBox="0 0 15 15" fill="none" xmlns="http://www.w3.org/2000/svg">
<mask id="path-1-outside-1_164_2548" maskUnits="userSpaceOnUse" x="-1" y="-1" width="17" height="17" fill="black">
<rect fill="white" x="-1" y="-1" width="17" height="17"/>
<path d="M5.85 14.5V8.825H5.21541e-08V5.675H5.85V1.19209e-07H9.15V5.675H15V8.825H9.15V14.5H5.85Z"/>
</mask>
<path d="M5.85 14.5V8.825H5.21541e-08V5.675H5.85V1.19209e-07H9.15V5.675H15V8.825H9.15V14.5H5.85Z" fill="black" fill-opacity="0.3"/>
<path d="M5.85 14.5H4.85V15.5H5.85V14.5ZM5.85 8.825H6.85V7.825H5.85V8.825ZM0 8.825H-1V9.825H0V8.825ZM0 5.675V4.675H-1V5.675H0ZM5.85 5.675V6.675H6.85V5.675H5.85ZM5.85 0V-1H4.85V0H5.85ZM9.15 0H10.15V-1H9.15V0ZM9.15 5.675H8.15V6.675H9.15V5.675ZM15 5.675H16V4.675H15V5.675ZM15 8.825V9.825H16V8.825H15ZM9.15 8.825V7.825H8.15V8.825H9.15ZM9.15 14.5V15.5H10.15V14.5H9.15ZM6.85 14.5V8.825H4.85V14.5H6.85ZM5.85 7.825H0V9.825H5.85V7.825ZM1 8.825V5.675H-1V8.825H1ZM0 6.675H5.85V4.675H0V6.675ZM6.85 5.675V0H4.85V5.675H6.85ZM5.85 1H9.15V-1H5.85V1ZM8.15 0V5.675H10.15V0H8.15ZM9.15 6.675H15V4.675H9.15V6.675ZM14 5.675V8.825H16V5.675H14ZM15 7.825H9.15V9.825H15V7.825ZM8.15 8.825V14.5H10.15V8.825H8.15ZM9.15 13.5H5.85V15.5H9.15V13.5Z" fill="white" mask="url(#path-1-outside-1_164_2548)"/>
</svg>
