<svg width="60" height="22" viewBox="0 0 60 22" fill="none" xmlns="http://www.w3.org/2000/svg">
<rect y="2" width="60" height="20" rx="10" fill="#FF0000"/>
<path d="M24.35 9.76H25.55V15.61C25.55 16.23 25.41 16.53 24.99 16.72C24.57 16.89 23.96 16.92 23.11 16.92C23.05 16.59 22.85 16.1 22.68 15.79C23.27 15.82 23.92 15.81 24.1 15.81C24.28 15.8 24.35 15.75 24.35 15.59V9.76ZM21.87 8.04H27.27V9.12H21.87V8.04ZM26.86 8.04H27.17L27.42 7.98L28.23 8.57C27.47 9.39 26.35 10.22 25.23 10.73C25.08 10.5 24.75 10.16 24.56 9.97C25.47 9.56 26.44 8.81 26.86 8.27V8.04ZM23.36 10.9H26.62V11.84H23.36V10.9ZM20.52 10.19H22.66V11.27H20.52V10.19ZM23.11 12.47H26.85V13.42H23.11V12.47ZM22.62 14.07H27.35V15.05H22.62V14.07ZM28.73 10.12L29.68 10.87C29.11 11.55 28.42 12.33 27.89 12.83L27.14 12.18C27.65 11.66 28.34 10.79 28.73 10.12ZM27.64 9.94C27.93 12.1 28.56 14.12 29.8 15.14C29.52 15.37 29.11 15.83 28.92 16.17C27.55 14.9 26.93 12.69 26.57 10.11L27.64 9.94ZM22.2 10.19H22.42L22.63 10.15L23.37 10.42C23.02 12.98 22.17 15.05 21.05 16.14C20.86 15.87 20.44 15.4 20.18 15.22C21.23 14.27 21.94 12.5 22.2 10.44V10.19ZM35.98 8.31H37.06C36.87 9.94 36.43 11.59 34.59 12.56C34.46 12.29 34.15 11.9 33.91 11.71C35.53 10.94 35.83 9.56 35.98 8.31ZM34.25 10.02L34.81 9.19C35.8 9.49 36.97 10.04 37.64 10.47L37.07 11.39C36.42 10.92 35.23 10.33 34.25 10.02ZM38.26 7.9H39.38C39.38 7.9 39.38 8.2 39.37 8.34C39.27 10.62 39.17 11.56 38.9 11.88C38.71 12.13 38.52 12.22 38.23 12.26C37.99 12.3 37.58 12.3 37.14 12.29C37.13 11.96 37.01 11.51 36.85 11.22C37.19 11.25 37.49 11.25 37.64 11.25C37.77 11.26 37.86 11.23 37.94 11.13C38.1 10.94 38.19 10.18 38.26 8.08V7.9ZM35.35 13.29H36.45V15.48C36.45 15.76 36.47 15.79 36.66 15.79C36.75 15.79 37.08 15.79 37.18 15.79C37.37 15.79 37.41 15.67 37.44 14.74C37.65 14.92 38.12 15.09 38.42 15.17C38.31 16.49 38.02 16.83 37.3 16.83C37.12 16.83 36.66 16.83 36.47 16.83C35.54 16.83 35.35 16.5 35.35 15.5V13.29ZM34.33 13.68L35.27 13.93C35.18 14.83 34.99 15.78 34.51 16.37L33.63 15.83C34.04 15.33 34.24 14.5 34.33 13.68ZM35.57 12.6L36.26 11.91C36.9 12.23 37.69 12.75 38.06 13.17L37.32 13.95C36.97 13.54 36.21 12.97 35.57 12.6ZM37.78 13.84L38.75 13.45C39.27 14.21 39.71 15.23 39.84 15.94L38.79 16.37C38.68 15.67 38.27 14.61 37.78 13.84ZM34.38 7.9H38.77V8.9H34.38V7.9ZM30.75 10.58H33.68V11.48H30.75V10.58ZM30.78 7.82H33.65V8.73H30.78V7.82ZM30.75 11.94H33.68V12.85H30.75V11.94ZM30.29 9.17H33.95V10.12H30.29V9.17ZM31.27 13.33H33.69V16.37H31.27V15.42H32.69V14.28H31.27V13.33ZM30.73 13.33H31.71V16.77H30.73V13.33Z" fill="white"/>
</svg>
