<svg width="38" height="21" viewBox="0 0 38 21" fill="none" xmlns="http://www.w3.org/2000/svg">
<rect width="38" height="21" rx="5" fill="#FF6A68"/>
<path d="M9.364 9.78H16.072V10.464H10.276V15.972H9.364V9.78ZM15.808 9.78H16.72V14.964C16.72 15.468 16.6 15.708 16.216 15.84C15.844 15.972 15.22 15.972 14.248 15.972C14.212 15.732 14.068 15.396 13.948 15.168C14.656 15.204 15.352 15.204 15.544 15.192C15.748 15.18 15.808 15.12 15.808 14.952V9.78ZM10.024 11.484H16.108V12.156H10.024V11.484ZM7.948 5.964H11.476V6.696H7.948V5.964ZM7.648 8.316C8.62 8.172 10.048 7.932 11.476 7.692L11.512 8.376C10.18 8.64 8.836 8.892 7.78 9.084L7.648 8.316ZM10.024 13.224H16.144V13.896H10.024V13.224ZM10.948 4.92H11.848V9.372H10.948V4.92ZM17.224 5.46L17.848 6.108C16.852 6.54 15.436 6.948 14.236 7.224C14.188 7.044 14.068 6.756 13.972 6.588C15.124 6.288 16.456 5.856 17.224 5.46ZM13.588 4.92H14.5V8.1C14.5 8.436 14.596 8.484 15.136 8.484C15.364 8.484 16.66 8.484 16.996 8.484C17.404 8.484 17.488 8.352 17.524 7.464C17.728 7.608 18.088 7.728 18.328 7.788C18.232 8.952 17.968 9.276 17.08 9.276C16.816 9.276 15.268 9.276 15.04 9.276C13.876 9.276 13.588 9.024 13.588 8.088V4.92ZM21.94 7.32V8.088H28.024V7.32H21.94ZM21.94 5.976V6.732H28.024V5.976H21.94ZM21.076 5.352H28.924V8.712H21.076V5.352ZM19.672 9.468H30.28V10.2H19.672V9.468ZM22.216 11.496V12.696H27.784V11.496H22.216ZM21.352 10.836H28.684V13.356H21.352V10.836ZM24.508 8.592H25.432V9.864H24.508V8.592ZM24.544 12.948H25.444V15.096C25.444 15.54 25.348 15.744 24.988 15.852C24.64 15.96 24.076 15.96 23.236 15.96C23.188 15.744 23.068 15.456 22.96 15.24C23.584 15.264 24.16 15.264 24.34 15.264C24.496 15.252 24.544 15.204 24.544 15.072V12.948ZM26.536 14.112L27.112 13.608C28.18 14.004 29.56 14.664 30.292 15.168L29.668 15.732C28.984 15.252 27.616 14.544 26.536 14.112ZM22.48 13.62L23.296 13.956C22.492 14.64 21.22 15.336 20.188 15.768C20.032 15.588 19.72 15.264 19.528 15.12C20.572 14.76 21.76 14.196 22.48 13.62Z" fill="white"/>
</svg>
