<svg width="45" height="23" viewBox="0 0 45 23" fill="none" xmlns="http://www.w3.org/2000/svg">
<rect width="45" height="23" rx="5" fill="#FF8F61"/>
<path d="M11.758 10.91H19.584V11.708H12.822V18.134H11.758V10.91ZM19.276 10.91H20.34V16.958C20.34 17.546 20.2 17.826 19.752 17.98C19.318 18.134 18.59 18.134 17.456 18.134C17.414 17.854 17.246 17.462 17.106 17.196C17.932 17.238 18.744 17.238 18.968 17.224C19.206 17.21 19.276 17.14 19.276 16.944V10.91ZM12.528 12.898H19.626V13.682H12.528V12.898ZM10.106 6.458H14.222V7.312H10.106V6.458ZM9.756 9.202C10.89 9.034 12.556 8.754 14.222 8.474L14.264 9.272C12.71 9.58 11.142 9.874 9.91 10.098L9.756 9.202ZM12.528 14.928H19.668V15.712H12.528V14.928ZM13.606 5.24H14.656V10.434H13.606V5.24ZM20.928 5.87L21.656 6.626C20.494 7.13 18.842 7.606 17.442 7.928C17.386 7.718 17.246 7.382 17.134 7.186C18.478 6.836 20.032 6.332 20.928 5.87ZM16.686 5.24H17.75V8.95C17.75 9.342 17.862 9.398 18.492 9.398C18.758 9.398 20.27 9.398 20.662 9.398C21.138 9.398 21.236 9.244 21.278 8.208C21.516 8.376 21.936 8.516 22.216 8.586C22.104 9.944 21.796 10.322 20.76 10.322C20.452 10.322 18.646 10.322 18.38 10.322C17.022 10.322 16.686 10.028 16.686 8.936V5.24ZM26.43 8.04V8.936H33.528V8.04H26.43ZM26.43 6.472V7.354H33.528V6.472H26.43ZM25.422 5.744H34.578V9.664H25.422V5.744ZM23.784 10.546H36.16V11.4H23.784V10.546ZM26.752 12.912V14.312H33.248V12.912H26.752ZM25.744 12.142H34.298V15.082H25.744V12.142ZM29.426 9.524H30.504V11.008H29.426V9.524ZM29.468 14.606H30.518V17.112C30.518 17.63 30.406 17.868 29.986 17.994C29.58 18.12 28.922 18.12 27.942 18.12C27.886 17.868 27.746 17.532 27.62 17.28C28.348 17.308 29.02 17.308 29.23 17.308C29.412 17.294 29.468 17.238 29.468 17.084V14.606ZM31.792 15.964L32.464 15.376C33.71 15.838 35.32 16.608 36.174 17.196L35.446 17.854C34.648 17.294 33.052 16.468 31.792 15.964ZM27.06 15.39L28.012 15.782C27.074 16.58 25.59 17.392 24.386 17.896C24.204 17.686 23.84 17.308 23.616 17.14C24.834 16.72 26.22 16.062 27.06 15.39Z" fill="white"/>
</svg>
