<svg width="94" height="26" viewBox="0 0 94 26" fill="none" xmlns="http://www.w3.org/2000/svg">
<rect width="94" height="26" rx="5" fill="#FF8F61"/>
<path d="M15.192 7.038C15.542 7.542 16.046 8.382 16.326 8.956L15.57 9.292C15.29 8.732 14.828 7.892 14.45 7.36L15.192 7.038ZM16.718 6.478C17.096 6.996 17.628 7.864 17.894 8.382L17.138 8.718C16.844 8.116 16.382 7.318 15.99 6.8L16.718 6.478ZM8.906 7.5C8.864 7.836 8.822 8.242 8.822 8.634C8.822 9.39 8.822 15.018 8.822 16.026C8.822 16.754 9.13 16.936 9.802 17.062C10.25 17.146 10.964 17.174 11.65 17.174C13.134 17.174 15.276 17.034 16.452 16.726V18.014C15.234 18.196 13.134 18.294 11.608 18.294C10.768 18.294 9.942 18.266 9.354 18.168C8.29 17.972 7.688 17.482 7.688 16.334C7.688 14.99 7.688 9.39 7.688 8.634C7.688 8.298 7.66 7.836 7.604 7.5H8.906ZM8.304 11.924C9.998 11.56 12.532 10.79 14.156 10.104C14.576 9.908 14.982 9.712 15.388 9.46L15.878 10.58C15.472 10.748 14.968 10.972 14.548 11.14C12.812 11.84 10.04 12.652 8.318 13.086L8.304 11.924ZM29.024 7.556C29.374 8.074 30.004 9.068 30.326 9.74L29.528 10.104C29.178 9.362 28.702 8.522 28.24 7.892L29.024 7.556ZM30.844 6.884C31.222 7.374 31.852 8.382 32.188 9.026L31.39 9.39C31.026 8.662 30.536 7.85 30.074 7.234L30.844 6.884ZM23.032 7.346C23.858 7.808 25.468 8.886 26.084 9.334L25.412 10.286C24.754 9.782 23.228 8.76 22.402 8.298L23.032 7.346ZM20.932 17.356C22.472 17.09 24.208 16.544 25.636 15.732C27.96 14.402 29.794 12.582 30.928 10.608L31.614 11.756C30.396 13.632 28.464 15.452 26.224 16.754C24.81 17.58 22.878 18.238 21.59 18.504L20.932 17.356ZM20.932 10.496C21.758 10.944 23.396 11.952 23.998 12.386L23.354 13.366C22.668 12.876 21.156 11.896 20.302 11.462L20.932 10.496ZM40.728 6.8C40.672 7.094 40.644 7.64 40.644 8.018C40.644 8.396 40.644 9.124 40.644 9.404H39.524C39.524 9.124 39.524 8.424 39.524 8.018C39.524 7.626 39.51 7.108 39.454 6.8H40.728ZM44.578 9.544C44.326 9.796 44.018 10.118 43.794 10.384C43.066 11.238 41.862 12.442 40.532 13.352C39.006 14.416 37.172 15.228 34.778 15.956L34.092 14.92C36.752 14.276 38.502 13.366 39.762 12.54C41.022 11.728 42.128 10.636 42.618 9.978C41.96 9.978 37.424 9.978 36.794 9.978C36.318 9.978 35.506 9.992 35.086 10.034V8.844C35.534 8.9 36.304 8.928 36.78 8.928C37.424 8.928 42.114 8.928 42.954 8.928C43.29 8.928 43.612 8.9 43.836 8.83L44.578 9.544ZM40.616 12.778C40.616 13.856 40.616 15.97 40.616 17.048C40.616 17.538 40.644 18.168 40.686 18.602H39.412C39.454 18.182 39.496 17.538 39.496 17.048C39.496 15.998 39.496 14.15 39.496 13.254L40.616 12.778ZM45.222 16.124C44.004 15.228 43.164 14.668 41.862 13.968L42.59 13.156C43.906 13.856 44.662 14.304 45.964 15.172L45.222 16.124ZM58.186 8.648C58.102 8.76 57.92 9.068 57.85 9.25C57.29 10.636 56.226 12.596 55.064 13.884C53.496 15.634 51.494 17.3 49.282 18.308L48.386 17.37C50.654 16.502 52.712 14.822 54.154 13.226C55.106 12.148 56.128 10.482 56.492 9.32C55.988 9.32 51.508 9.32 51.032 9.32C50.528 9.32 49.772 9.376 49.618 9.39V8.13C49.8 8.158 50.598 8.214 51.032 8.214C51.578 8.214 55.904 8.214 56.436 8.214C56.884 8.214 57.262 8.172 57.486 8.102L58.186 8.648ZM55.246 13.156C56.758 14.416 58.62 16.376 59.572 17.538L58.606 18.392C57.598 17.062 55.96 15.27 54.448 13.94L55.246 13.156ZM62.372 8.662H73.026V9.698H63.408V19.12H62.372V8.662ZM72.634 8.662H73.684V17.734C73.684 18.42 73.53 18.77 73.04 18.938C72.536 19.106 71.654 19.134 70.38 19.134C70.324 18.826 70.17 18.336 70.002 18.042C71.024 18.084 71.99 18.084 72.284 18.07C72.564 18.056 72.634 17.986 72.634 17.72V8.662ZM67.132 6.212L68.434 6.436C68 7.43 67.468 8.564 67.048 9.306L66.04 9.068C66.432 8.284 66.894 7.066 67.132 6.212ZM65.256 11.546H66.222V17.188H65.256V11.546ZM65.704 11.546H70.744V16.18H65.704V15.242H69.764V12.498H65.704V11.546ZM85.654 7.094C85.612 7.318 85.598 7.598 85.598 7.92C85.584 8.438 85.64 10.804 85.64 11.588C85.64 14.794 85.64 17.09 82.672 18.826L81.65 18.042C82.084 17.86 82.658 17.51 83.008 17.16C84.506 15.858 84.576 14.262 84.576 11.574C84.576 10.678 84.52 8.508 84.478 7.92C84.45 7.612 84.394 7.304 84.338 7.094H85.654ZM80.53 9.992C81.146 10.09 82.028 10.146 82.798 10.146C84.52 10.146 86.508 10.034 87.908 9.712V10.846C86.55 11.07 84.59 11.196 82.812 11.196C82.126 11.196 81.146 11.154 80.53 11.098V9.992ZM78.57 7.304C78.486 7.556 78.388 7.948 78.332 8.214C77.884 10.244 77.394 13.31 77.94 15.606C78.122 15.004 78.43 14.15 78.682 13.464L79.284 13.828C78.948 14.794 78.528 16.222 78.374 16.922C78.332 17.118 78.304 17.384 78.318 17.552C78.318 17.692 78.346 17.874 78.36 18.028L77.394 18.14C77.114 17.272 76.666 15.452 76.666 13.702C76.666 11.42 77.03 9.278 77.198 8.102C77.24 7.794 77.254 7.416 77.268 7.164L78.57 7.304Z" fill="white"/>
</svg>
