<svg width="40" height="40" viewBox="0 0 40 40" fill="none" xmlns="http://www.w3.org/2000/svg">
<rect width="40" height="40" rx="10" fill="#00AC83"/>
<path fill-rule="evenodd" clip-rule="evenodd" d="M15 14C15 12.8954 15.8954 12 17 12H21C22.1046 12 23 12.8954 23 14C23 14.5523 23.4477 15 24 15H25C27.2091 15 29 16.7909 29 19V24C29 26.2091 27.2091 28 25 28H15C12.7909 28 11 26.2091 11 24V19C11 17.1325 12.2798 15.5639 14.0101 15.1234C14.5453 14.9872 15 14.5523 15 14ZM19.5 25C21.433 25 23 23.433 23 21.5C23 19.567 21.433 18 19.5 18C17.567 18 16 19.567 16 21.5C16 23.433 17.567 25 19.5 25Z" fill="white"/>
<path d="M14.0101 15.1234L13.8868 14.6389L14.0101 15.1234ZM17 11.5C15.6193 11.5 14.5 12.6193 14.5 14H15.5C15.5 13.1716 16.1716 12.5 17 12.5V11.5ZM21 11.5H17V12.5H21V11.5ZM23.5 14C23.5 12.6193 22.3807 11.5 21 11.5V12.5C21.8284 12.5 22.5 13.1716 22.5 14H23.5ZM24 14.5C23.7239 14.5 23.5 14.2761 23.5 14H22.5C22.5 14.8284 23.1716 15.5 24 15.5V14.5ZM25 14.5H24V15.5H25V14.5ZM29.5 19C29.5 16.5147 27.4853 14.5 25 14.5V15.5C26.933 15.5 28.5 17.067 28.5 19H29.5ZM29.5 24V19H28.5V24H29.5ZM25 28.5C27.4853 28.5 29.5 26.4853 29.5 24H28.5C28.5 25.933 26.933 27.5 25 27.5V28.5ZM15 28.5H25V27.5H15V28.5ZM10.5 24C10.5 26.4853 12.5147 28.5 15 28.5V27.5C13.067 27.5 11.5 25.933 11.5 24H10.5ZM10.5 19V24H11.5V19H10.5ZM13.8868 14.6389C11.9402 15.1344 10.5 16.8984 10.5 19H11.5C11.5 17.3666 12.6193 15.9934 14.1335 15.608L13.8868 14.6389ZM14.5 14C14.5 14.2546 14.2753 14.54 13.8868 14.6389L14.1335 15.608C14.8154 15.4344 15.5 14.85 15.5 14H14.5ZM22.5 21.5C22.5 23.1569 21.1569 24.5 19.5 24.5V25.5C21.7091 25.5 23.5 23.7091 23.5 21.5H22.5ZM19.5 18.5C21.1569 18.5 22.5 19.8431 22.5 21.5H23.5C23.5 19.2909 21.7091 17.5 19.5 17.5V18.5ZM16.5 21.5C16.5 19.8431 17.8431 18.5 19.5 18.5V17.5C17.2909 17.5 15.5 19.2909 15.5 21.5H16.5ZM19.5 24.5C17.8431 24.5 16.5 23.1569 16.5 21.5H15.5C15.5 23.7091 17.2909 25.5 19.5 25.5V24.5Z" fill="white"/>
</svg>
