<svg width="70" height="20" viewBox="0 0 70 20" fill="none" xmlns="http://www.w3.org/2000/svg">
<rect width="70" height="20" rx="10" fill="#FF8F61"/>
<path d="M8.328 6.44C8.928 6.472 10.144 6.44 11.016 6.32C11.744 6.224 12.68 6.032 13.072 5.856L13.496 6.416C13.32 6.464 13.168 6.504 13.048 6.536C12.584 6.648 11.84 6.792 11.2 6.88C10.304 7 9.2 7.024 8.488 7.04L8.328 6.44ZM8.776 11.896C10.136 11.256 10.816 10.256 10.816 8.608C10.816 8.608 10.816 7.888 10.816 6.792L11.456 6.704C11.456 7.328 11.456 8.592 11.456 8.592C11.456 10.296 10.896 11.472 9.4 12.328L8.776 11.896ZM7.704 8.344C7.88 8.36 8.16 8.384 8.408 8.384C8.92 8.384 13.176 8.384 13.672 8.384C13.84 8.384 14.136 8.368 14.304 8.352V9.008C14.128 8.992 13.88 8.984 13.68 8.984C13.2 8.984 8.912 8.984 8.416 8.984C8.16 8.984 7.896 8.992 7.704 9.008V8.344ZM18.0019 7.104C18.0179 7.248 18.0659 7.416 18.1139 7.624C18.2979 8.288 19.1699 11.456 19.3379 12C19.3859 12.152 19.4579 12.4 19.5139 12.544L18.8259 12.728C18.8099 12.544 18.7699 12.336 18.7139 12.144C18.5459 11.568 17.6899 8.344 17.5059 7.752C17.4499 7.56 17.3859 7.4 17.3139 7.272L18.0019 7.104ZM21.8419 8.208C21.5059 8.88 20.6819 10.008 20.1299 10.544L19.5699 10.256C20.0659 9.832 20.6739 9.088 20.9459 8.616C20.5939 8.68 16.8499 9.432 16.2819 9.552L16.1219 8.944C16.3459 8.92 16.5459 8.896 16.7859 8.848C17.1859 8.784 20.6739 8.128 21.1299 8.024C21.2339 8 21.3539 7.96 21.4339 7.92L21.8419 8.208ZM26.7859 7.4C26.9219 7.72 27.3139 8.776 27.4099 9.12L26.8179 9.336C26.7299 8.968 26.3619 7.952 26.1939 7.6L26.7859 7.4ZM29.6819 7.848C29.6259 8.008 29.5859 8.136 29.5539 8.24C29.3459 9.12 28.9939 9.984 28.4259 10.704C27.6819 11.64 26.7059 12.264 25.8179 12.6L25.2899 12.064C26.2099 11.792 27.2339 11.184 27.8899 10.368C28.4579 9.672 28.8659 8.648 28.9939 7.624L29.6819 7.848ZM24.9219 7.8C25.0819 8.136 25.5059 9.184 25.6499 9.608L25.0499 9.832C24.9219 9.416 24.4899 8.304 24.3299 8.024L24.9219 7.8ZM33.6099 11.296C33.6099 10.848 33.6099 7.312 33.6099 6.648C33.6099 6.416 33.5939 6.064 33.5539 5.808H34.3379C34.3059 6.056 34.2819 6.4 34.2819 6.648C34.2819 7.888 34.2899 10.92 34.2899 11.296C34.2899 11.552 34.3059 11.984 34.3379 12.248H33.5619C33.6019 11.992 33.6099 11.592 33.6099 11.296ZM34.1379 7.912C35.1939 8.216 36.8099 8.832 37.6979 9.264L37.4179 9.944C36.5059 9.456 35.0099 8.888 34.1379 8.616V7.912ZM42.6019 5.68C42.5299 5.992 42.4419 6.432 42.2339 6.968C42.0339 7.456 41.7379 7.992 41.4179 8.408C41.7299 8.224 42.1859 8.112 42.5379 8.112C43.1539 8.112 43.6339 8.48 43.6339 9.128C43.6339 9.544 43.6499 10.464 43.6579 10.96H43.0419C43.0739 10.536 43.0819 9.712 43.0739 9.296C43.0659 8.832 42.7459 8.616 42.3299 8.616C41.8179 8.616 41.3139 8.872 40.9459 9.2C40.7139 9.424 40.4899 9.712 40.2259 10.04L39.6739 9.632C40.8259 8.528 41.3619 7.6 41.6339 6.92C41.8099 6.48 41.9219 6 41.9459 5.624L42.6019 5.68ZM39.8579 6.544C40.2899 6.6 40.8419 6.624 41.2099 6.624C42.2899 6.624 43.6739 6.56 44.8019 6.36V6.952C43.6819 7.12 42.1939 7.192 41.1779 7.192C40.8339 7.192 40.3059 7.176 39.8579 7.144V6.544ZM45.9699 8.472C45.7699 8.536 45.4819 8.648 45.2659 8.728C44.6979 8.952 43.9379 9.256 43.1619 9.656C42.3699 10.072 41.8099 10.504 41.8099 11.056C41.8099 11.68 42.4259 11.776 43.2499 11.776C43.8739 11.776 44.7379 11.704 45.4419 11.576L45.4179 12.224C44.8099 12.296 43.9219 12.36 43.2259 12.36C42.0899 12.36 41.1699 12.112 41.1699 11.144C41.1699 10.168 42.1619 9.568 43.1139 9.08C43.8739 8.688 44.5219 8.44 45.0499 8.192C45.2899 8.08 45.4899 7.992 45.7139 7.88L45.9699 8.472ZM47.8099 6.344H54.0659V10.856H53.4499V6.92H48.4019V10.904H47.8099V6.344ZM48.1939 8.088H53.7779V8.64H48.1939V8.088ZM48.2019 9.864H53.7699V10.44H48.2019V9.864ZM50.5859 5.28H51.2019V12.632H50.5859V5.28ZM55.6019 7.704H57.9459V8.184H55.6019V7.704ZM55.6259 5.568H57.9139V6.048H55.6259V5.568ZM55.6019 8.776H57.9459V9.256H55.6019V8.776ZM55.2259 6.616H58.2099V7.112H55.2259V6.616ZM55.8659 9.856H57.9459V12.192H55.8659V11.688H57.4179V10.352H55.8659V9.856ZM55.5939 9.856H56.1139V12.56H55.5939V9.856ZM58.3859 5.824H62.4099V6.288H58.3859V5.824ZM58.5939 6.768H62.2899V7.208H58.5939V6.768ZM58.1859 7.728H62.5859V8.192H58.1859V7.728ZM60.0899 5.28H60.6579V8.12H60.0899V5.28ZM58.7859 8.664H61.8659V9.12H59.3539V12.632H58.7859V8.664ZM61.5299 8.664H62.0979V12.008C62.0979 12.304 62.0339 12.448 61.8339 12.536C61.6179 12.616 61.2819 12.616 60.7859 12.616C60.7619 12.472 60.6819 12.264 60.6099 12.12C60.9699 12.136 61.2979 12.128 61.4019 12.128C61.5059 12.12 61.5299 12.096 61.5299 12V8.664ZM59.0419 9.696H61.8179V10.128H59.0419V9.696ZM59.0419 10.704H61.8179V11.136H59.0419V10.704Z" fill="white"/>
</svg>
