<svg width="60" height="20" viewBox="0 0 60 20" fill="none" xmlns="http://www.w3.org/2000/svg">
<rect width="60" height="20" rx="10" fill="#3526C9"/>
<path d="M12.52 5.82C13.29 5.84 14.83 5.83 15.93 5.67C16.94 5.52 17.95 5.3 18.45 5.06L19.28 6.16C18.94 6.25 18.67 6.32 18.51 6.36C17.89 6.52 17.09 6.65 16.32 6.76C15.18 6.92 13.71 6.96 12.84 6.98L12.52 5.82ZM12.95 12.72C14.72 11.91 15.51 10.59 15.51 8.72C15.51 8.72 15.51 8.07 15.51 6.65L16.82 6.5C16.82 7.36 16.82 8.69 16.82 8.69C16.82 10.71 16.16 12.42 14.23 13.58L12.95 12.72ZM11.77 8.22C12.05 8.24 12.38 8.27 12.7 8.27C13.33 8.27 18.68 8.27 19.35 8.27C19.56 8.27 20.03 8.24 20.25 8.22V9.51C19.98 9.49 19.65 9.47 19.37 9.47C18.74 9.47 13.3 9.47 12.71 9.47C12.4 9.47 12.03 9.49 11.77 9.51V8.22ZM24.9023 6.65C24.9323 6.89 25.0023 7.15 25.0623 7.41C25.4023 8.61 26.3423 12.05 26.5923 12.88C26.6423 13.06 26.7823 13.5 26.8523 13.7L25.5023 14.04C25.4623 13.77 25.4023 13.44 25.3223 13.16C25.0723 12.29 24.1623 8.72 23.8423 7.68C23.7723 7.43 23.6623 7.18 23.5523 6.97L24.9023 6.65ZM29.7023 8.2C29.2723 9.07 28.2723 10.58 27.5723 11.32L26.4623 10.77C26.9823 10.31 27.6723 9.47 27.9423 8.98C27.4223 9.07 23.3523 9.92 22.5323 10.1L22.2223 8.91C22.5323 8.88 22.8123 8.85 23.1423 8.79C23.6823 8.71 27.6823 7.95 28.3923 7.79C28.5623 7.75 28.7623 7.69 28.8923 7.63L29.7023 8.2ZM35.9423 7.07C36.1323 7.49 36.6223 8.8 36.7623 9.26L35.5723 9.67C35.4423 9.19 35.0023 7.98 34.7623 7.46L35.9423 7.07ZM39.6323 7.79C39.5223 8.12 39.4623 8.33 39.4023 8.53C39.1423 9.54 38.7123 10.58 38.0323 11.45C37.1023 12.66 35.8623 13.49 34.6923 13.94L33.6423 12.87C34.7323 12.57 36.1323 11.81 36.9523 10.77C37.6323 9.93 38.1223 8.6 38.2323 7.34L39.6323 7.79ZM33.6223 7.59C33.8723 8.1 34.3623 9.32 34.5523 9.88L33.3323 10.33C33.1723 9.8 32.6623 8.46 32.4223 8.03L33.6223 7.59ZM44.0323 12.05C44.0323 11.28 44.0323 7.14 44.0323 6.3C44.0323 5.94 44.0023 5.45 43.9323 5.09H45.4923C45.4523 5.45 45.4023 5.88 45.4023 6.3C45.4023 7.4 45.4123 11.31 45.4123 12.05C45.4123 12.33 45.4523 13.03 45.5023 13.44H43.9323C44.0023 13.05 44.0323 12.44 44.0323 12.05ZM45.1123 7.68C46.4423 8.05 48.6023 8.84 49.5823 9.32L49.0223 10.71C47.8823 10.12 46.2023 9.48 45.1123 9.12V7.68Z" fill="white"/>
</svg>
