<svg width="41" height="41" viewBox="0 0 41 41" fill="none" xmlns="http://www.w3.org/2000/svg">
<path d="M39.9088 7.12396C39.6801 5.92081 39.234 4.82394 38.6149 3.94258C37.9958 3.06121 37.2253 2.42609 36.3802 2.10047C33.2861 0.8992 20.8334 0.8992 20.8334 0.8992C20.8334 0.8992 8.38018 0.935562 5.2861 2.13684C4.44093 2.46247 3.67044 3.09762 3.05134 3.97903C2.43225 4.86044 1.98615 5.95736 1.75748 7.16054C0.821591 14.9868 0.458543 26.9121 1.78318 34.4253C2.01187 35.6285 2.45798 36.7253 3.07707 37.6067C3.69617 38.4881 4.46665 39.1232 5.31179 39.4488C8.40587 40.6501 20.8588 40.6501 20.8588 40.6501C20.8588 40.6501 33.3116 40.6501 36.4056 39.4488C37.2507 39.1232 38.0212 38.4881 38.6404 37.6067C39.2595 36.7254 39.7056 35.6285 39.9343 34.4253C40.9215 26.588 41.2256 14.6699 39.9088 7.12396Z" fill="#FF0000"/>
<path d="M16.8672 30.4578L27.1976 21.9205L16.8672 13.3831V30.4578Z" fill="white"/>
</svg>
