<svg width="14" height="13" viewBox="0 0 14 13" fill="none" xmlns="http://www.w3.org/2000/svg">
<ellipse cx="6.5" cy="6.06667" rx="6.5" ry="6.06667" fill="#FFDD55"/>
<path d="M1.37 7.1333V4.1333H2.12V4.5833H2.24C2.3 4.4333 2.39167 4.3083 2.515 4.2083C2.64167 4.1083 2.82667 4.0583 3.07 4.0583C3.40333 4.0583 3.65333 4.1633 3.82 4.3733C3.98667 4.5833 4.07 4.8683 4.07 5.2283V7.1333H3.26V5.3633C3.26 5.15663 3.22333 4.9983 3.15 4.8883C3.07667 4.77497 2.95667 4.7183 2.79 4.7183C2.59667 4.7183 2.44667 4.79497 2.34 4.9483C2.23333 5.0983 2.18 5.28663 2.18 5.5133V7.1333H1.37ZM6.02344 7.2083C5.5501 7.2083 5.18844 7.06663 4.93844 6.7833C4.69177 6.49997 4.56844 6.11497 4.56844 5.6283C4.56844 5.30163 4.62344 5.02163 4.73344 4.7883C4.84677 4.55497 5.0101 4.37497 5.22344 4.2483C5.4401 4.12163 5.70344 4.0583 6.01344 4.0583C6.4601 4.0583 6.80177 4.1933 7.03844 4.4633C7.27844 4.7333 7.39844 5.12997 7.39844 5.6533V5.8233H5.35844C5.3751 6.07663 5.4401 6.27663 5.55344 6.4233C5.6701 6.56663 5.82677 6.6383 6.02344 6.6383C6.1801 6.6383 6.3051 6.59163 6.39844 6.4983C6.4951 6.40497 6.55844 6.29663 6.58844 6.1733H7.35844C7.32844 6.35663 7.26177 6.52663 7.15844 6.6833C7.0551 6.83997 6.9101 6.96663 6.72344 7.0633C6.53677 7.15997 6.30344 7.2083 6.02344 7.2083ZM5.35844 5.3133H6.60844C6.5951 5.08663 6.53844 4.91163 6.43844 4.7883C6.33844 4.66163 6.1951 4.5983 6.00844 4.5983C5.8251 4.5983 5.67677 4.6583 5.56344 4.7783C5.45344 4.89497 5.3851 5.0733 5.35844 5.3133ZM8.19578 7.1333L7.74078 4.1383V4.1333H8.49078L8.84578 6.5333H8.96578L9.38078 4.1333H10.6708L11.0858 6.5333H11.2058L11.5608 4.1333H12.2608V4.1383L11.8058 7.1333H10.4858L10.0608 4.7183H9.94078L9.51578 7.1333H8.19578Z" fill="#FF0000"/>
</svg>
