<svg width="50" height="26" viewBox="0 0 50 26" fill="none" xmlns="http://www.w3.org/2000/svg">
<rect x="0.5" y="0.5" width="49" height="24.289" rx="3.5" fill="#2AC3FF" stroke="#2AC3FF"/>
<path d="M19.358 10.0791H20.422V18.1571H19.358V10.0791ZM15.27 12.1371H24.356V13.1031H15.27V12.1371ZM20.716 12.5151C21.556 14.1951 23.194 15.8891 24.72 16.7291C24.496 16.9251 24.16 17.3031 23.978 17.5551C22.452 16.5751 20.828 14.6851 19.904 12.8231L20.716 12.5151ZM19.12 12.4451L19.946 12.7531C19.008 14.6851 17.272 16.5611 15.606 17.5271C15.424 17.2751 15.102 16.9111 14.878 16.7011C16.516 15.8891 18.238 14.1531 19.12 12.4451ZM17.314 6.87313V9.43513H22.536V6.87313H17.314ZM16.32 5.93513H23.572V10.3871H16.32V5.93513ZM14.864 5.30513L15.858 5.61313C14.906 7.97913 13.436 10.3311 11.91 11.8851C11.798 11.6471 11.504 11.1011 11.308 10.8491C12.708 9.51913 14.052 7.43313 14.864 5.30513ZM13.408 8.91713L14.402 7.92313L14.416 7.93713V18.1151H13.408V8.91713ZM29.69 13.3131H38.398V14.2931H29.69V13.3131ZM30.88 9.68713H36.648V10.6531H30.88V9.68713ZM33.61 12.0111H34.66V16.9111C34.66 17.5271 34.534 17.8211 34.058 17.9891C33.596 18.1431 32.826 18.1431 31.622 18.1431C31.566 17.8491 31.426 17.4431 31.286 17.1491C32.224 17.1771 33.05 17.1631 33.302 17.1631C33.54 17.1491 33.61 17.0931 33.61 16.8971V12.0111ZM36.368 9.68713H36.62L36.844 9.63113L37.516 10.1351C36.69 11.1011 35.458 12.1231 34.38 12.7671C34.24 12.5851 33.974 12.2911 33.792 12.1511C34.73 11.5911 35.836 10.6111 36.368 9.88313V9.68713ZM25.868 7.09713H38.132V8.10513H25.868V7.09713ZM30.39 5.26313L31.482 5.54313C30.502 8.76313 28.794 12.0251 25.994 14.0271C25.882 13.7611 25.616 13.2991 25.434 13.0471C27.982 11.2691 29.606 8.16113 30.39 5.26313ZM27.632 10.9891H28.682V18.1151H27.632V10.9891Z" fill="white"/>
</svg>
