<svg width="87" height="26" viewBox="0 0 87 26" fill="none" xmlns="http://www.w3.org/2000/svg">
<rect width="87" height="26" rx="5" fill="#2A08F8" fill-opacity="0.5"/>
<path d="M18.27 8.948C18.27 9.466 18.676 9.872 19.194 9.872C19.698 9.872 20.118 9.466 20.118 8.948C20.118 8.444 19.698 8.024 19.194 8.024C18.676 8.024 18.27 8.444 18.27 8.948ZM17.626 8.948C17.626 8.08 18.326 7.38 19.194 7.38C20.062 7.38 20.762 8.08 20.762 8.948C20.762 9.816 20.062 10.516 19.194 10.516C18.326 10.516 17.626 9.816 17.626 8.948ZM18.844 9.886C18.746 10.082 18.69 10.32 18.634 10.586C18.326 12.056 17.654 14.324 16.534 15.752C15.26 17.404 13.594 18.692 11.032 19.504L10.08 18.454C12.796 17.768 14.364 16.578 15.54 15.08C16.534 13.82 17.178 11.86 17.374 10.516C16.562 10.516 11.018 10.516 10.206 10.516C9.646 10.516 9.17 10.544 8.82 10.572V9.326C9.198 9.368 9.758 9.424 10.22 9.424C11.018 9.424 16.604 9.424 17.234 9.424C17.458 9.424 17.724 9.41 17.99 9.34L18.844 9.886ZM24.108 18.566C24.206 18.342 24.234 18.146 24.234 17.88C24.234 16.998 24.234 11.202 24.234 9.872C24.234 9.494 24.178 8.864 24.122 8.598H25.494C25.452 8.934 25.396 9.466 25.396 9.858C25.396 11.188 25.396 17.096 25.396 17.81C28.084 17.124 31.318 15.29 33.068 13.036L33.698 14.016C31.878 16.27 28.994 17.992 25.494 19.014C25.354 19.056 25.13 19.126 24.906 19.252L24.108 18.566ZM45.192 8.038C45.542 8.542 46.046 9.382 46.326 9.956L45.57 10.292C45.29 9.732 44.828 8.892 44.45 8.36L45.192 8.038ZM46.718 7.478C47.096 7.996 47.628 8.864 47.894 9.382L47.138 9.718C46.844 9.116 46.382 8.318 45.99 7.8L46.718 7.478ZM38.906 8.5C38.864 8.836 38.822 9.242 38.822 9.634C38.822 10.39 38.822 16.018 38.822 17.026C38.822 17.754 39.13 17.936 39.802 18.062C40.25 18.146 40.964 18.174 41.65 18.174C43.134 18.174 45.276 18.034 46.452 17.726V19.014C45.234 19.196 43.134 19.294 41.608 19.294C40.768 19.294 39.942 19.266 39.354 19.168C38.29 18.972 37.688 18.482 37.688 17.334C37.688 15.99 37.688 10.39 37.688 9.634C37.688 9.298 37.66 8.836 37.604 8.5H38.906ZM38.304 12.924C39.998 12.56 42.532 11.79 44.156 11.104C44.576 10.908 44.982 10.712 45.388 10.46L45.878 11.58C45.472 11.748 44.968 11.972 44.548 12.14C42.812 12.84 40.04 13.652 38.318 14.086L38.304 12.924ZM59.304 12.35C59.262 12.476 59.22 12.658 59.22 12.784C59.094 13.834 58.59 17.194 58.422 18.174H57.246C57.4 17.418 57.918 13.988 57.96 13.092C57.092 13.092 53.9 13.092 53.522 13.092C53.116 13.092 52.738 13.106 52.388 13.134V11.958C52.724 12 53.158 12.028 53.508 12.028C54.04 12.028 56.98 12.028 57.764 12.028C57.988 12.028 58.338 12 58.45 11.93L59.304 12.35ZM51.072 17.726C51.408 17.768 51.814 17.796 52.234 17.796C52.99 17.796 59.136 17.796 59.878 17.796C60.186 17.796 60.69 17.768 60.984 17.74V18.874C60.718 18.86 60.214 18.86 59.906 18.86C59.122 18.86 52.934 18.86 52.234 18.86C51.814 18.86 51.492 18.874 51.072 18.888V17.726ZM64.414 12.938C64.848 12.98 65.576 13.022 66.374 13.022C67.396 13.022 73.01 13.022 74.046 13.022C74.746 13.022 75.236 12.966 75.558 12.938V14.31C75.264 14.296 74.676 14.254 74.06 14.254C72.996 14.254 67.41 14.254 66.374 14.254C65.604 14.254 64.862 14.282 64.414 14.31V12.938Z" fill="white"/>
</svg>
