<svg width="73" height="26" viewBox="0 0 73 26" fill="none" xmlns="http://www.w3.org/2000/svg">
<rect width="73" height="26" rx="5" fill="#FF8F61"/>
<path d="M14.838 12.322L16.07 12.63C15.188 14.744 13.97 17.362 12.934 19.056L11.968 18.748C12.962 17.026 14.18 14.296 14.838 12.322ZM10.246 18.426C12.808 18.342 16.882 18.174 20.634 17.992L20.606 19C16.938 19.21 13.018 19.42 10.386 19.532L10.246 18.426ZM17.526 15.388L18.534 14.926C19.808 16.396 21.25 18.342 21.95 19.616L20.886 20.19C20.228 18.916 18.772 16.872 17.526 15.388ZM13.424 7.66L14.586 7.982C13.648 10.236 12.178 12.378 10.694 13.764C10.47 13.554 9.98 13.176 9.686 13.008C11.226 11.748 12.612 9.732 13.424 7.66ZM18.436 7.646C19.36 9.48 21.124 11.692 22.412 12.854C22.132 13.078 21.74 13.484 21.53 13.75C20.228 12.42 18.478 10.04 17.4 8.08L18.436 7.646ZM26.514 13.442H33.458V14.31H26.514V13.442ZM26.248 15.836H33.752V16.732H26.248V15.836ZM30.91 13.722H31.862V19.868H30.91V13.722ZM28.04 13.764H28.95V16.312C28.95 17.166 28.614 19 27.032 20.064C26.892 19.868 26.57 19.574 26.332 19.434C27.746 18.566 28.04 17.082 28.04 16.312V13.764ZM24.778 9.788H28.712V10.544H24.778V9.788ZM31.232 9.788H35.194V10.544H31.232V9.788ZM34.788 7.842H35.824V18.762C35.824 19.392 35.684 19.728 35.264 19.91C34.844 20.092 34.144 20.106 33.08 20.106C33.038 19.826 32.898 19.336 32.744 19.042C33.514 19.07 34.27 19.07 34.494 19.056C34.718 19.056 34.788 18.972 34.788 18.762V7.842ZM24.862 7.842H29.356V12.56H24.862V11.762H28.362V8.654H24.862V7.842ZM35.292 7.842V8.654H31.596V11.776H35.292V12.574H30.588V7.842H35.292ZM24.232 7.842H25.268V20.134H24.232V7.842ZM45.778 7.912C45.75 8.08 45.708 8.626 45.708 8.794C45.666 9.704 45.694 12.406 45.708 13.526L44.644 12.98C44.644 12.364 44.63 9.578 44.588 8.808C44.56 8.43 44.518 8.038 44.49 7.912H45.778ZM38.33 9.872C40.234 9.844 43.734 9.718 45.89 9.718C47.598 9.718 49.334 9.718 49.992 9.732L49.978 10.768C49.194 10.726 47.934 10.698 45.876 10.698C43.468 10.698 40.472 10.796 38.358 10.95L38.33 9.872ZM45.68 13.932C45.68 15.808 44.812 16.746 43.538 16.746C42.362 16.746 41.228 15.92 41.228 14.394C41.228 13.008 42.376 11.972 43.706 11.972C45.33 11.972 46.156 13.176 46.156 14.786C46.156 16.69 45.232 18.79 41.984 19.756L41.046 18.846C43.594 18.244 45.078 16.998 45.078 14.688C45.078 13.428 44.462 12.896 43.706 12.896C42.964 12.896 42.278 13.47 42.278 14.38C42.278 15.262 42.936 15.766 43.706 15.766C44.574 15.766 45.134 15.038 44.91 13.54L45.68 13.932ZM54.332 8.696C54.64 8.724 55.032 8.738 55.312 8.738C56.054 8.738 59.372 8.64 60.114 8.57C60.534 8.528 60.73 8.5 60.884 8.444L61.528 9.27C61.276 9.438 60.996 9.62 60.73 9.83C60.044 10.362 58.14 12 57.048 12.896C57.692 12.686 58.364 12.616 58.994 12.616C61.318 12.616 62.984 14.002 62.984 15.892C62.984 18.146 61.122 19.616 58.154 19.616C56.25 19.616 55.088 18.79 55.088 17.614C55.088 16.662 55.956 15.794 57.244 15.794C59.106 15.794 60.044 17.11 60.142 18.524L59.134 18.692C59.05 17.502 58.364 16.648 57.244 16.648C56.6 16.648 56.11 17.04 56.11 17.53C56.11 18.216 56.88 18.622 57.986 18.622C60.366 18.622 61.864 17.642 61.864 15.892C61.864 14.506 60.548 13.484 58.714 13.484C56.39 13.484 55.13 14.464 53.366 16.27L52.554 15.458C53.716 14.506 55.522 12.994 56.32 12.308C57.104 11.664 58.868 10.194 59.568 9.564C58.826 9.606 56.026 9.718 55.298 9.76C54.976 9.788 54.668 9.802 54.36 9.844L54.332 8.696Z" fill="white"/>
</svg>
