<svg width="50" height="26" viewBox="0 0 50 26" fill="none" xmlns="http://www.w3.org/2000/svg">
<rect x="0.5" y="0.5" width="49" height="24.289" rx="3.5" fill="#FF8F61" stroke="#FF8F61"/>
<path d="M17.538 11.2691H18.63V16.8411C18.63 17.4711 18.462 17.7791 17.958 17.9331C17.454 18.0871 16.642 18.1011 15.41 18.1011C15.34 17.8071 15.158 17.3731 15.004 17.0791C15.984 17.1211 16.936 17.1071 17.216 17.0931C17.468 17.0791 17.538 17.0231 17.538 16.8131V11.2691ZM13.058 6.03313H21.892V6.99913H13.058V6.03313ZM21.5 6.03313H21.78L22.018 5.96313L22.774 6.55113C21.612 7.72713 19.876 9.00113 18.434 9.79913C18.294 9.57513 17.972 9.25313 17.776 9.08513C19.078 8.39913 20.716 7.16713 21.5 6.25713V6.03313ZM11.742 10.4991H23.46V11.5071H11.742V10.4991ZM14.976 8.62313L15.522 7.85313C17.146 8.51113 19.442 9.51913 20.646 10.1351L20.072 11.0311C18.924 10.4011 16.642 9.33713 14.976 8.62313ZM23.096 10.4991H23.306L23.502 10.4291L24.342 10.8071C23.586 12.0391 22.69 13.3971 21.836 14.2371L20.954 13.7191C21.668 12.9631 22.536 11.7451 23.096 10.6951V10.4991ZM32.154 11.2831L33.008 10.8491C33.806 11.8291 34.646 13.1731 34.982 14.0691L34.058 14.5591C33.75 13.6771 32.938 12.2911 32.154 11.2831ZM32.238 7.79713H37.558V8.79113H32.238V7.79713ZM37.138 7.79713H38.146C38.146 7.79713 38.146 8.20313 38.146 8.34313C37.908 14.6571 37.684 16.8411 37.11 17.5411C36.788 17.9471 36.48 18.0591 35.948 18.1151C35.472 18.1571 34.618 18.1431 33.778 18.0871C33.75 17.7791 33.624 17.3311 33.442 17.0371C34.366 17.1211 35.234 17.1211 35.584 17.1211C35.864 17.1211 36.046 17.0931 36.186 16.9111C36.676 16.4071 36.914 14.0831 37.138 8.03513V7.79713ZM32.756 5.26313L33.834 5.50113C33.218 7.53113 32.252 9.49113 31.188 10.7651C30.978 10.5971 30.516 10.2891 30.25 10.1491C31.342 8.97313 32.238 7.12513 32.756 5.26313ZM27.73 5.27713L28.668 5.62713C28.136 6.66313 27.464 7.90913 26.918 8.66513L26.19 8.35713C26.722 7.54513 27.366 6.20113 27.73 5.27713ZM29.424 6.87313L30.334 7.26513C29.354 8.83313 27.982 10.8491 26.918 12.0531L26.246 11.7031C27.324 10.4571 28.654 8.35713 29.424 6.87313ZM25.518 8.21713L26.05 7.51713C26.834 8.17513 27.716 9.09913 28.094 9.71513L27.534 10.5131C27.156 9.85513 26.274 8.88913 25.518 8.21713ZM28.976 10.1211L29.76 9.78513C30.348 10.6811 30.95 11.8851 31.16 12.6551L30.32 13.0471C30.11 12.2631 29.55 11.0451 28.976 10.1211ZM25.49 11.5351C26.75 11.4931 28.612 11.4231 30.46 11.3391V12.1931C28.682 12.3051 26.904 12.4031 25.574 12.4731L25.49 11.5351ZM29.326 13.4671L30.124 13.2151C30.53 14.0691 30.922 15.1751 31.076 15.9031L30.222 16.1971C30.096 15.4691 29.718 14.3351 29.326 13.4671ZM26.26 13.2711L27.17 13.4391C26.974 14.7551 26.624 16.1131 26.176 17.0091C25.994 16.8971 25.574 16.7011 25.35 16.6031C25.812 15.7491 26.092 14.5031 26.26 13.2711ZM27.87 11.9411H28.822V18.1851H27.87V11.9411Z" fill="white"/>
</svg>
