<svg width="59" height="20" viewBox="0 0 59 20" fill="none" xmlns="http://www.w3.org/2000/svg">
<rect x="0.5" y="0.5" width="58" height="19" rx="9.5" fill="white" stroke="#A9A9A9"/>
<path d="M15.6 8.7H16.84V12.16C16.84 12.55 16.9 12.6 17.22 12.6C17.36 12.6 17.95 12.6 18.13 12.6C18.47 12.6 18.53 12.35 18.57 10.9C18.83 11.11 19.36 11.32 19.68 11.4C19.56 13.21 19.26 13.73 18.24 13.73C18.01 13.73 17.25 13.73 17.03 13.73C15.89 13.73 15.6 13.34 15.6 12.17V8.7ZM10.52 7.93H19.49V9.1H10.52V7.93ZM11.43 5.21H18.57V6.37H11.43V5.21ZM12.81 8.85H14.1C13.94 11.05 13.56 12.86 11.04 13.87C10.91 13.57 10.57 13.13 10.3 12.9C12.5 12.08 12.69 10.61 12.81 8.85ZM24.47 6.01C25.7 6.18 27.7 6.13 28.77 6V7.29C27.55 7.41 25.73 7.41 24.48 7.29L24.47 6.01ZM25.27 10.28C25.19 10.62 25.15 10.86 25.15 11.12C25.15 11.57 25.54 11.84 26.56 11.84C27.45 11.84 28.19 11.76 29.06 11.57L29.09 12.92C28.44 13.05 27.63 13.12 26.5 13.12C24.78 13.12 23.95 12.5 23.95 11.48C23.95 11.08 24.01 10.69 24.13 10.18L25.27 10.28ZM22.93 5.34C22.86 5.55 22.73 6.06 22.69 6.24C22.55 6.9 22.2 8.9 22.2 9.9C22.2 10.1 22.21 10.35 22.24 10.55C22.39 10.21 22.55 9.87 22.7 9.53L23.32 10.02C23.03 10.86 22.7 11.94 22.6 12.47C22.57 12.62 22.54 12.84 22.54 12.94C22.55 13.05 22.55 13.22 22.56 13.36L21.41 13.43C21.21 12.75 21.02 11.53 21.02 10.17C21.02 8.66 21.32 6.98 21.43 6.2C21.47 5.93 21.52 5.55 21.53 5.23L22.93 5.34ZM32.04 10.05H39.33V11.09H32.04V10.05ZM36.23 10.69C36.72 11.96 37.8 12.62 39.73 12.81C39.47 13.07 39.15 13.56 39.01 13.89C36.85 13.54 35.78 12.63 35.14 10.86L36.23 10.69ZM34.98 8.88H36.21C36.09 11.55 35.72 13.14 32.53 13.92C32.42 13.62 32.12 13.16 31.89 12.93C34.7 12.32 34.88 11.12 34.98 8.88ZM31.4 6.59H32.61V8.5C32.61 10.05 32.4 12.33 31.25 13.79C31.03 13.59 30.5 13.26 30.19 13.14C31.3 11.8 31.4 9.84 31.4 8.48V6.59ZM31.99 6.59H38.84V9.17H31.99V8.26H37.66V7.49H31.99V6.59ZM30.78 5.03H39.3V6.11H30.78V5.03ZM46.53 4.94C46.5 5.11 46.47 5.64 46.46 5.8C46.43 6.46 46.45 8.5 46.46 9.3L45.21 8.88C45.21 8.26 45.21 6.34 45.17 5.81C45.14 5.41 45.1 5.07 45.08 4.94H46.53ZM40.87 6.19C42.36 6.19 45 6.11 46.25 6.11C47.27 6.11 48.79 6.1 49.35 6.11L49.33 7.29C48.71 7.26 47.69 7.23 46.22 7.23C44.4 7.23 42.41 7.31 40.9 7.39L40.87 6.19ZM46.29 9.15C46.29 10.78 45.69 11.59 44.54 11.59C43.77 11.59 42.81 10.98 42.81 9.76C42.81 8.63 43.73 7.89 44.81 7.89C46.13 7.89 46.82 8.86 46.82 10.1C46.82 11.41 46.05 13.06 43.61 13.75L42.55 12.69C44.25 12.32 45.58 11.65 45.58 9.9C45.58 9.25 45.23 8.94 44.79 8.94C44.4 8.94 44.01 9.21 44.01 9.74C44.01 10.19 44.38 10.48 44.79 10.48C45.26 10.48 45.67 10.08 45.35 8.89L46.29 9.15Z" fill="#999999"/>
</svg>
