<svg width="40" height="40" viewBox="0 0 40 40" fill="none" xmlns="http://www.w3.org/2000/svg">
<rect width="40" height="40" rx="10" fill="#565E70"/>
<path fill-rule="evenodd" clip-rule="evenodd" d="M25.316 19.8539C25.032 21.1304 25.1964 22.5408 26.1211 23.4655L28.6053 25.9497C29.3864 26.7308 29.3864 27.9971 28.6053 28.7782C27.8243 29.5592 26.5579 29.5592 25.7769 28.7782L23.7274 26.7287C22.6924 25.6937 21.0709 25.6177 19.6805 26.0747C16.7305 27.0442 13.3549 26.3561 11.0091 24.0104C7.68967 20.691 7.68967 15.309 11.0091 11.9896C14.3286 8.67014 19.7105 8.67014 23.0299 11.9896C25.1642 14.1239 25.9263 17.1108 25.316 19.8539ZM20.6053 21.5355C22.5579 19.5829 22.5579 16.4171 20.6053 14.4645C18.6527 12.5118 15.4869 12.5118 13.5342 14.4645C11.5816 16.4171 11.5816 19.5829 13.5342 21.5355C15.4869 23.4882 18.6527 23.4882 20.6053 21.5355Z" fill="white"/>
<path d="M26.1211 23.4655L26.4746 23.1119L26.1211 23.4655ZM25.316 19.8539L25.8041 19.9625V19.9625L25.316 19.8539ZM28.6053 25.9497L28.2518 26.3033L28.6053 25.9497ZM28.6053 28.7782L28.9589 29.1317H28.9589L28.6053 28.7782ZM25.7769 28.7782L26.1304 28.4246L25.7769 28.7782ZM23.7274 26.7287L23.3738 27.0822H23.3738L23.7274 26.7287ZM19.6805 26.0747L19.8366 26.5497L19.6805 26.0747ZM11.0091 24.0104L10.6556 24.364L11.0091 24.0104ZM11.0091 11.9896L10.6556 11.636L11.0091 11.9896ZM23.0299 11.9896L22.6764 12.3431V12.3431L23.0299 11.9896ZM20.6053 14.4645L20.2518 14.818L20.6053 14.4645ZM13.5342 21.5355L13.1807 21.8891L13.5342 21.5355ZM26.4746 23.1119C25.7164 22.3537 25.5407 21.1465 25.8041 19.9625L24.8279 19.7453C24.5234 21.1143 24.6764 22.728 25.7675 23.819L26.4746 23.1119ZM28.9589 25.5962L26.4746 23.1119L25.7675 23.819L28.2518 26.3033L28.9589 25.5962ZM28.9589 29.1317C29.9352 28.1554 29.9352 26.5725 28.9589 25.5962L28.2518 26.3033C28.8376 26.8891 28.8376 27.8388 28.2518 28.4246L28.9589 29.1317ZM25.4233 29.1317C26.3996 30.108 27.9826 30.108 28.9589 29.1317L28.2518 28.4246C27.666 29.0104 26.7162 29.0104 26.1304 28.4246L25.4233 29.1317ZM23.3738 27.0822L25.4233 29.1317L26.1304 28.4246L24.0809 26.3751L23.3738 27.0822ZM19.8366 26.5497C21.1332 26.1236 22.5257 26.2341 23.3738 27.0822L24.0809 26.3751C22.8592 25.1533 21.0087 25.1118 19.5244 25.5997L19.8366 26.5497ZM10.6556 24.364C13.1398 26.8482 16.7144 27.5758 19.8366 26.5497L19.5244 25.5997C16.7466 26.5126 13.5699 25.8641 11.3627 23.6569L10.6556 24.364ZM10.6556 11.636C7.14085 15.1508 7.14085 20.8492 10.6556 24.364L11.3627 23.6569C8.23848 20.5327 8.23848 15.4673 11.3627 12.3431L10.6556 11.636ZM23.3835 11.636C19.8688 8.12132 14.1703 8.12132 10.6556 11.636L11.3627 12.3431C14.4869 9.21895 19.5522 9.21895 22.6764 12.3431L23.3835 11.636ZM25.8041 19.9625C26.4499 17.0595 25.6437 13.8963 23.3835 11.636L22.6764 12.3431C24.6848 14.3515 25.4026 17.1621 24.8279 19.7453L25.8041 19.9625ZM20.2518 14.818C22.0091 16.5754 22.0091 19.4246 20.2518 21.182L20.9589 21.8891C23.1068 19.7412 23.1068 16.2588 20.9589 14.1109L20.2518 14.818ZM13.8878 14.818C15.6452 13.0607 18.4944 13.0607 20.2518 14.818L20.9589 14.1109C18.811 11.963 15.3286 11.963 13.1807 14.1109L13.8878 14.818ZM13.8878 21.182C12.1304 19.4246 12.1304 16.5754 13.8878 14.818L13.1807 14.1109C11.0328 16.2588 11.0328 19.7412 13.1807 21.8891L13.8878 21.182ZM20.2518 21.182C18.4944 22.9393 15.6452 22.9393 13.8878 21.182L13.1807 21.8891C15.3286 24.037 18.811 24.037 20.9589 21.8891L20.2518 21.182Z" fill="white"/>
</svg>
