<svg width="60" height="20" viewBox="0 0 60 20" fill="none" xmlns="http://www.w3.org/2000/svg">
<rect width="60" height="20" rx="10" fill="#FF8F61"/>
<path d="M24.84 4.8H25.98V6.02C25.98 6.96 25.77 8.12 24.72 8.84C24.55 8.62 24.07 8.22 23.83 8.07C24.74 7.47 24.84 6.67 24.84 5.99V4.8ZM27.09 4.8H28.22V7.04C28.22 7.32 28.23 7.35 28.34 7.35C28.39 7.35 28.54 7.35 28.6 7.35C28.72 7.35 28.76 7.22 28.78 6.35C28.99 6.52 29.46 6.7 29.76 6.77C29.66 8.02 29.38 8.37 28.72 8.37C28.56 8.37 28.29 8.37 28.13 8.37C27.33 8.37 27.09 8.06 27.09 7.06V4.8ZM25.79 9.9C26.47 11.32 27.9 12.4 29.78 12.86C29.51 13.1 29.16 13.59 29 13.89C27 13.3 25.59 12.03 24.73 10.24L25.79 9.9ZM28.03 8.82H28.25L28.46 8.78L29.24 9.06C28.55 11.74 26.82 13.18 24.48 13.89C24.36 13.59 24.06 13.09 23.84 12.84C25.92 12.33 27.51 11.03 28.03 9V8.82ZM24.36 8.82H28.5V9.9H24.36V8.82ZM25.3 4.8H27.7V5.85H25.3V4.8ZM20.78 7.58H23.87V8.48H20.78V7.58ZM20.81 4.82H23.85V5.73H20.81V4.82ZM20.78 8.94H23.87V9.85H20.78V8.94ZM20.29 6.17H24.23V7.12H20.29V6.17ZM21.33 10.33H23.86V13.37H21.33V12.42H22.83V11.28H21.33V10.33ZM20.75 10.33H21.76V13.77H20.75V10.33ZM32.23 7.53H37.76V8.67H32.23V7.53ZM34.99 9.93H38.37V11.05H34.99V9.93ZM34.36 8.19H35.62V13.02L34.36 12.87V8.19ZM31.97 9.23L33.23 9.36C32.97 11.39 32.35 12.98 31.21 13.96C31.01 13.75 30.5 13.32 30.22 13.14C31.3 12.34 31.8 10.95 31.97 9.23ZM32.94 10.48C33.58 12.32 34.98 12.6 36.76 12.6C37.29 12.6 38.96 12.6 39.63 12.58C39.46 12.86 39.26 13.44 39.21 13.8H36.69C34.38 13.8 32.82 13.33 31.96 10.81L32.94 10.48ZM34.34 4.52H35.62V6.35H34.34V4.52ZM30.7 5.53H39.3V8.04H38.06V6.67H31.88V8.04H30.7V5.53Z" fill="white"/>
</svg>
