<svg width="56" height="20" viewBox="0 3 56 20" fill="none" xmlns="http://www.w3.org/2000/svg">
<rect y="3" width="56" height="20" rx="10" fill="#FF8F61"/>
<path d="M11.84 7.8H12.98V9.02C12.98 9.96 12.77 11.12 11.72 11.84C11.55 11.62 11.07 11.22 10.83 11.07C11.74 10.47 11.84 9.67 11.84 8.99V7.8ZM14.09 7.8H15.22V10.04C15.22 10.32 15.23 10.35 15.34 10.35C15.39 10.35 15.54 10.35 15.6 10.35C15.72 10.35 15.76 10.22 15.78 9.35C15.99 9.52 16.46 9.7 16.76 9.77C16.66 11.02 16.38 11.37 15.72 11.37C15.56 11.37 15.29 11.37 15.13 11.37C14.33 11.37 14.09 11.06 14.09 10.06V7.8ZM12.79 12.9C13.47 14.32 14.9 15.4 16.78 15.86C16.51 16.1 16.16 16.59 16 16.89C14 16.3 12.59 15.03 11.73 13.24L12.79 12.9ZM15.03 11.82H15.25L15.46 11.78L16.24 12.06C15.55 14.74 13.82 16.18 11.48 16.89C11.36 16.59 11.06 16.09 10.84 15.84C12.92 15.33 14.51 14.03 15.03 12V11.82ZM11.36 11.82H15.5V12.9H11.36V11.82ZM12.3 7.8H14.7V8.85H12.3V7.8ZM7.78 10.58H10.87V11.48H7.78V10.58ZM7.81 7.82H10.85V8.73H7.81V7.82ZM7.78 11.94H10.87V12.85H7.78V11.94ZM7.29 9.17H11.23V10.12H7.29V9.17ZM8.33 13.33H10.86V16.37H8.33V15.42H9.83V14.28H8.33V13.33ZM7.75 13.33H8.76V16.77H7.75V13.33ZM19.23 10.53H24.76V11.67H19.23V10.53ZM21.99 12.93H25.37V14.05H21.99V12.93ZM21.36 11.19H22.62V16.02L21.36 15.87V11.19ZM18.97 12.23L20.23 12.36C19.97 14.39 19.35 15.98 18.21 16.96C18.01 16.75 17.5 16.32 17.22 16.14C18.3 15.34 18.8 13.95 18.97 12.23ZM19.94 13.48C20.58 15.32 21.98 15.6 23.76 15.6C24.29 15.6 25.96 15.6 26.63 15.58C26.46 15.86 26.26 16.44 26.21 16.8H23.69C21.38 16.8 19.82 16.33 18.96 13.81L19.94 13.48ZM21.34 7.52H22.62V9.35H21.34V7.52ZM17.7 8.53H26.3V11.04H25.06V9.67H18.88V11.04H17.7V8.53Z" fill="white"/>
<path d="M41.5 18L37.6029 10.5L45.3971 10.5L41.5 18Z" fill="white"/>
</svg>
