<svg width="27" height="27" viewBox="0 0 27 27" fill="none" xmlns="http://www.w3.org/2000/svg">
<path d="M13.1239 8.78906C12.1968 8.78906 11.2905 9.06398 10.5196 9.57905C9.74877 10.0941 9.14796 10.8262 8.79318 11.6827C8.43839 12.5393 8.34556 13.4818 8.52643 14.391C8.7073 15.3003 9.15374 16.1356 9.8093 16.7911C10.4649 17.4467 11.3001 17.8931 12.2094 18.074C13.1187 18.2549 14.0612 18.162 14.9177 17.8072C15.7742 17.4525 16.5063 16.8517 17.0214 16.0808C17.5364 15.3099 17.8114 14.4037 17.8114 13.4766C17.8077 12.2345 17.3126 11.0444 16.4343 10.1661C15.5561 9.28782 14.3659 8.79277 13.1239 8.78906ZM23.2442 13.4766C23.2417 13.9146 23.2096 14.3519 23.1481 14.7855L26.001 17.0191C26.1253 17.1217 26.209 17.2652 26.2372 17.4238C26.2655 17.5825 26.2363 17.746 26.1551 17.8852L23.4563 22.5445C23.3742 22.6825 23.2462 22.787 23.0946 22.8399C22.9431 22.8927 22.7778 22.8904 22.6278 22.8334L19.2733 21.4857C18.5748 22.0236 17.8104 22.47 16.9987 22.8141L16.4971 26.3754C16.469 26.5349 16.3864 26.6797 16.2634 26.7851C16.1404 26.8905 15.9846 26.9499 15.8227 26.9531H10.425C10.266 26.95 10.1128 26.8931 9.9903 26.7917C9.86782 26.6903 9.78332 26.5504 9.75062 26.3947L9.24906 22.8334C8.43512 22.4933 7.67017 22.0462 6.97445 21.5039L3.61996 22.8516C3.47001 22.9086 3.30474 22.911 3.1532 22.8583C3.00167 22.8056 2.87357 22.7011 2.79144 22.5633L0.0926126 17.9045C0.0113769 17.7653 -0.0177261 17.6018 0.0105041 17.4432C0.0387344 17.2845 0.122458 17.1411 0.246714 17.0385L3.09964 14.8049C3.03879 14.3647 3.00669 13.921 3.00355 13.4766C3.00599 13.0386 3.03809 12.6012 3.09964 12.1676L0.246714 9.93398C0.122458 9.83138 0.0387344 9.68795 0.0105041 9.5293C-0.0177261 9.37065 0.0113769 9.20713 0.0926126 9.06797L2.79144 4.40859C2.87348 4.27066 3.00154 4.16608 3.15308 4.11324C3.30462 4.06041 3.46994 4.0627 3.61996 4.11973L6.97445 5.46738C7.67296 4.9295 8.43735 4.48311 9.24906 4.13906L9.75062 0.577734C9.77869 0.418212 9.86129 0.27339 9.9843 0.168014C10.1073 0.0626388 10.2631 0.00325121 10.425 0H15.8227C15.9817 0.00309465 16.1349 0.0599949 16.2574 0.161412C16.3799 0.262829 16.4644 0.402773 16.4971 0.558398L16.9987 4.11973C17.8136 4.45955 18.5796 4.90667 19.2762 5.44922L22.6278 4.10156C22.7777 4.04449 22.943 4.0421 23.0945 4.09483C23.2461 4.14755 23.3742 4.25202 23.4563 4.38984L26.1551 9.04922C26.2363 9.18838 26.2655 9.3519 26.2372 9.51055C26.209 9.6692 26.1253 9.81264 26.001 9.91523L23.1481 12.1488C23.2089 12.5889 23.241 13.0324 23.2442 13.4766Z" fill="#545454"/>
</svg>
