<svg width="55" height="54" viewBox="0 0 55 54" fill="none" xmlns="http://www.w3.org/2000/svg">
<path d="M54.6402 10.7382C54.4941 10.566 54.3113 10.4274 54.1046 10.3324C53.8979 10.2373 53.6724 10.188 53.4442 10.188H11.1558L9.81454 2.92905C9.66257 2.10699 9.22139 1.36343 8.56801 0.828106C7.91462 0.292784 7.09051 -0.000299502 6.23948 2.2967e-07H1.55663C1.14378 2.2967e-07 0.74785 0.161006 0.455926 0.447599C0.164001 0.734192 0 1.1229 0 1.5282C0 1.9335 0.164001 2.32221 0.455926 2.6088C0.74785 2.89539 1.14378 3.0564 1.55663 3.0564H6.22651C6.34937 3.05443 6.46896 3.09534 6.56398 3.17183C6.659 3.24832 6.72328 3.35544 6.74538 3.47411L13.3636 39.2085C13.5736 40.3484 14.1393 41.396 14.9825 42.2063C13.9643 43.0059 13.204 44.078 12.7935 45.2929C12.383 46.5079 12.34 47.8136 12.6696 49.0521C12.9992 50.2905 13.6874 51.4086 14.6509 52.2711C15.6143 53.1336 16.8118 53.7034 18.0982 53.9117C19.3847 54.12 20.7051 53.9578 21.8996 53.4447C23.0942 52.9316 24.1116 52.0897 24.8289 51.0207C25.5461 49.9518 25.9324 48.7016 25.9411 47.4216C25.9497 46.1416 25.5803 44.8866 24.8775 43.8084H38.4253C37.6187 45.0477 37.2552 46.5154 37.3922 47.98C37.5293 49.4446 38.159 50.8227 39.1822 51.897C40.2054 52.9713 41.5637 53.6806 43.0429 53.9131C44.5222 54.1456 46.0382 53.8881 47.3519 53.1811C48.6655 52.4741 49.7021 51.3579 50.298 50.0085C50.894 48.6592 51.0154 47.1535 50.6432 45.7288C50.271 44.3042 49.4263 43.0418 48.2423 42.1406C47.0584 41.2395 45.6025 40.7509 44.1044 40.752H18.9831C18.3755 40.7521 17.7871 40.5428 17.3206 40.1607C16.8541 39.7785 16.539 39.2478 16.4302 38.6609L15.4962 33.6204H46.2059C47.5426 33.6207 48.837 33.1605 49.8635 32.3199C50.8899 31.4792 51.5833 30.3116 51.8227 29.0205L54.9749 11.9887C55.0156 11.7689 55.0067 11.543 54.9489 11.327C54.8911 11.1109 54.7857 10.9099 54.6402 10.7382ZM22.8305 47.3742C22.8305 48.0794 22.6175 48.7689 22.2184 49.3552C21.8193 49.9416 21.252 50.3987 20.5884 50.6686C19.9247 50.9384 19.1944 51.0091 18.4898 50.8715C17.7852 50.7339 17.1381 50.3943 16.6301 49.8956C16.1221 49.3969 15.7762 48.7615 15.6361 48.0698C15.4959 47.3782 15.5678 46.6612 15.8428 46.0096C16.1177 45.3581 16.5832 44.8012 17.1805 44.4093C17.7778 44.0175 18.48 43.8084 19.1984 43.8084C20.1617 43.8084 21.0856 44.1841 21.7667 44.8528C22.4479 45.5215 22.8305 46.4285 22.8305 47.3742ZM47.7366 47.3742C47.7366 48.0794 47.5235 48.7689 47.1244 49.3552C46.7253 49.9416 46.1581 50.3987 45.4944 50.6686C44.8307 50.9384 44.1004 51.0091 43.3958 50.8715C42.6913 50.7339 42.0441 50.3943 41.5361 49.8956C41.0282 49.3969 40.6822 48.7615 40.5421 48.0698C40.402 47.3782 40.4739 46.6612 40.7488 46.0096C41.0237 45.3581 41.4892 44.8012 42.0865 44.4093C42.6838 44.0175 43.3861 43.8084 44.1044 43.8084C45.0677 43.8084 45.9916 44.1841 46.6727 44.8528C47.3539 45.5215 47.7366 46.4285 47.7366 47.3742ZM48.7588 28.4729C48.65 29.0598 48.3349 29.5905 47.8683 29.9727C47.4018 30.3548 46.8135 30.5641 46.2059 30.564H14.9306L11.724 13.2444H51.5788L48.7588 28.4729Z" fill="white"/>
</svg>
