<svg width="102" height="26" viewBox="0 0 102 26" fill="none" xmlns="http://www.w3.org/2000/svg">
<rect x="15" width="72" height="26" rx="5" fill="#FF8F61"/>
<path d="M30.1504 15.4844C30.1504 15.252 30.1139 15.0469 30.041 14.8691C29.9727 14.6868 29.8496 14.5228 29.6719 14.377C29.4987 14.2311 29.2572 14.0921 28.9473 13.96C28.6419 13.8278 28.2546 13.6934 27.7852 13.5566C27.293 13.4108 26.8486 13.249 26.4521 13.0713C26.0557 12.889 25.7161 12.6816 25.4336 12.4492C25.151 12.2168 24.9346 11.9502 24.7842 11.6494C24.6338 11.3486 24.5586 11.0046 24.5586 10.6172C24.5586 10.2298 24.6383 9.87207 24.7979 9.54395C24.9574 9.21582 25.1852 8.93099 25.4814 8.68945C25.7822 8.44336 26.14 8.25195 26.5547 8.11523C26.9694 7.97852 27.432 7.91016 27.9424 7.91016C28.6898 7.91016 29.3232 8.05371 29.8428 8.34082C30.3669 8.62337 30.7656 8.99479 31.0391 9.45508C31.3125 9.91081 31.4492 10.3984 31.4492 10.918H30.1367C30.1367 10.5443 30.057 10.2139 29.8975 9.92676C29.738 9.63509 29.4964 9.40723 29.1729 9.24316C28.8493 9.07454 28.4391 8.99023 27.9424 8.99023C27.473 8.99023 27.0856 9.06087 26.7803 9.20215C26.4749 9.34342 26.2471 9.53483 26.0967 9.77637C25.9508 10.0179 25.8779 10.2936 25.8779 10.6035C25.8779 10.8132 25.9212 11.0046 26.0078 11.1777C26.099 11.3464 26.238 11.5036 26.4248 11.6494C26.6162 11.7952 26.8577 11.9297 27.1494 12.0527C27.4456 12.1758 27.7988 12.2943 28.209 12.4082C28.7741 12.5677 29.2617 12.7454 29.6719 12.9414C30.082 13.1374 30.4193 13.3584 30.6836 13.6045C30.9525 13.846 31.1507 14.1217 31.2783 14.4316C31.4105 14.737 31.4766 15.0833 31.4766 15.4707C31.4766 15.8763 31.3945 16.2432 31.2305 16.5713C31.0664 16.8994 30.8317 17.1797 30.5264 17.4121C30.221 17.6445 29.8542 17.8245 29.4258 17.9521C29.002 18.0752 28.528 18.1367 28.0039 18.1367C27.5436 18.1367 27.0902 18.0729 26.6436 17.9453C26.2015 17.8177 25.7982 17.6263 25.4336 17.3711C25.0736 17.1159 24.7842 16.8014 24.5654 16.4277C24.3512 16.0495 24.2441 15.612 24.2441 15.1152H25.5566C25.5566 15.457 25.6227 15.751 25.7549 15.9971C25.887 16.2386 26.0671 16.4391 26.2949 16.5986C26.5273 16.7581 26.7894 16.8766 27.0811 16.9541C27.3773 17.027 27.6849 17.0635 28.0039 17.0635C28.4642 17.0635 28.8538 16.9997 29.1729 16.8721C29.4919 16.7445 29.7334 16.5622 29.8975 16.3252C30.0661 16.0882 30.1504 15.8079 30.1504 15.4844ZM40.8145 8.04688V18H39.4883L34.4775 10.3232V18H33.1582V8.04688H34.4775L39.5088 15.7441V8.04688H40.8145ZM48.457 15.4844C48.457 15.252 48.4206 15.0469 48.3477 14.8691C48.2793 14.6868 48.1562 14.5228 47.9785 14.377C47.8053 14.2311 47.5638 14.0921 47.2539 13.96C46.9486 13.8278 46.5612 13.6934 46.0918 13.5566C45.5996 13.4108 45.1553 13.249 44.7588 13.0713C44.3623 12.889 44.0228 12.6816 43.7402 12.4492C43.4577 12.2168 43.2412 11.9502 43.0908 11.6494C42.9404 11.3486 42.8652 11.0046 42.8652 10.6172C42.8652 10.2298 42.945 9.87207 43.1045 9.54395C43.264 9.21582 43.4919 8.93099 43.7881 8.68945C44.0889 8.44336 44.4466 8.25195 44.8613 8.11523C45.276 7.97852 45.7386 7.91016 46.249 7.91016C46.9964 7.91016 47.6299 8.05371 48.1494 8.34082C48.6735 8.62337 49.0723 8.99479 49.3457 9.45508C49.6191 9.91081 49.7559 10.3984 49.7559 10.918H48.4434C48.4434 10.5443 48.3636 10.2139 48.2041 9.92676C48.0446 9.63509 47.8031 9.40723 47.4795 9.24316C47.1559 9.07454 46.7458 8.99023 46.249 8.99023C45.7796 8.99023 45.3923 9.06087 45.0869 9.20215C44.7816 9.34342 44.5537 9.53483 44.4033 9.77637C44.2575 10.0179 44.1846 10.2936 44.1846 10.6035C44.1846 10.8132 44.2279 11.0046 44.3145 11.1777C44.4056 11.3464 44.5446 11.5036 44.7314 11.6494C44.9229 11.7952 45.1644 11.9297 45.4561 12.0527C45.7523 12.1758 46.1055 12.2943 46.5156 12.4082C47.0807 12.5677 47.5684 12.7454 47.9785 12.9414C48.3887 13.1374 48.7259 13.3584 48.9902 13.6045C49.2591 13.846 49.4574 14.1217 49.585 14.4316C49.7171 14.737 49.7832 15.0833 49.7832 15.4707C49.7832 15.8763 49.7012 16.2432 49.5371 16.5713C49.373 16.8994 49.1383 17.1797 48.833 17.4121C48.5277 17.6445 48.1608 17.8245 47.7324 17.9521C47.3086 18.0752 46.8346 18.1367 46.3105 18.1367C45.8503 18.1367 45.3968 18.0729 44.9502 17.9453C44.5081 17.8177 44.1048 17.6263 43.7402 17.3711C43.3802 17.1159 43.0908 16.8014 42.8721 16.4277C42.6579 16.0495 42.5508 15.612 42.5508 15.1152H43.8633C43.8633 15.457 43.9294 15.751 44.0615 15.9971C44.1937 16.2386 44.3737 16.4391 44.6016 16.5986C44.834 16.7581 45.096 16.8766 45.3877 16.9541C45.6839 17.027 45.9915 17.0635 46.3105 17.0635C46.7708 17.0635 47.1605 16.9997 47.4795 16.8721C47.7985 16.7445 48.04 16.5622 48.2041 16.3252C48.3727 16.0882 48.457 15.8079 48.457 15.4844ZM51.6816 8.662H62.3356V9.698H52.7176V19.12H51.6816V8.662ZM61.9436 8.662H62.9936V17.734C62.9936 18.42 62.8396 18.77 62.3496 18.938C61.8456 19.106 60.9636 19.134 59.6896 19.134C59.6336 18.826 59.4796 18.336 59.3116 18.042C60.3336 18.084 61.2996 18.084 61.5936 18.07C61.8736 18.056 61.9436 17.986 61.9436 17.72V8.662ZM56.4416 6.212L57.7436 6.436C57.3096 7.43 56.7776 8.564 56.3576 9.306L55.3496 9.068C55.7416 8.284 56.2036 7.066 56.4416 6.212ZM54.5656 11.546H55.5316V17.188H54.5656V11.546ZM55.0136 11.546H60.0536V16.18H55.0136V15.242H59.0736V12.498H55.0136V11.546ZM74.9636 7.094C74.9216 7.318 74.9076 7.598 74.9076 7.92C74.8936 8.438 74.9496 10.804 74.9496 11.588C74.9496 14.794 74.9496 17.09 71.9816 18.826L70.9596 18.042C71.3936 17.86 71.9676 17.51 72.3176 17.16C73.8156 15.858 73.8856 14.262 73.8856 11.574C73.8856 10.678 73.8296 8.508 73.7876 7.92C73.7596 7.612 73.7036 7.304 73.6476 7.094H74.9636ZM69.8396 9.992C70.4556 10.09 71.3376 10.146 72.1076 10.146C73.8296 10.146 75.8176 10.034 77.2176 9.712V10.846C75.8596 11.07 73.8996 11.196 72.1216 11.196C71.4356 11.196 70.4556 11.154 69.8396 11.098V9.992ZM67.8796 7.304C67.7956 7.556 67.6976 7.948 67.6416 8.214C67.1936 10.244 66.7036 13.31 67.2496 15.606C67.4316 15.004 67.7396 14.15 67.9916 13.464L68.5936 13.828C68.2576 14.794 67.8376 16.222 67.6836 16.922C67.6416 17.118 67.6136 17.384 67.6276 17.552C67.6276 17.692 67.6556 17.874 67.6696 18.028L66.7036 18.14C66.4236 17.272 65.9756 15.452 65.9756 13.702C65.9756 11.42 66.3396 9.278 66.5076 8.102C66.5496 7.794 66.5636 7.416 66.5776 7.164L67.8796 7.304Z" fill="white"/>
</svg>
