<svg width="35" height="36" viewBox="0 0 35 36" fill="none" xmlns="http://www.w3.org/2000/svg">
<path d="M30.2273 21.2428V26.5535H35V30.0939H30.2273V35.4046H27.0455V30.0939H22.2727V26.5535H27.0455V21.2428H30.2273ZM30.24 0C31.1118 0 31.8182 0.787753 31.8182 1.75784V17.7023H28.6364V3.54046H3.18182V28.3219L19.0909 10.6214L23.8636 15.9321V20.9401L19.0909 15.6294L7.67932 28.3237H19.0909V31.8642H1.57818C1.15948 31.8637 0.758063 31.6783 0.462142 31.3487C0.166221 31.0191 -2.12315e-07 30.5722 0 30.1063V1.75784C0.00291143 1.29294 0.170069 0.847971 0.465361 0.519063C0.760654 0.190155 1.16038 0.00370801 1.57818 0H30.24ZM9.54545 7.08092C10.3893 7.08092 11.1986 7.45393 11.7953 8.1179C12.392 8.78186 12.7273 9.6824 12.7273 10.6214C12.7273 11.5604 12.392 12.4609 11.7953 13.1249C11.1986 13.7888 10.3893 14.1618 9.54545 14.1618C8.70158 14.1618 7.89228 13.7888 7.29557 13.1249C6.69886 12.4609 6.36364 11.5604 6.36364 10.6214C6.36364 9.6824 6.69886 8.78186 7.29557 8.1179C7.89228 7.45393 8.70158 7.08092 9.54545 7.08092Z" fill="#A2A2A2"/>
</svg>
