<svg width="70" height="20" viewBox="0 0 70 20" fill="none" xmlns="http://www.w3.org/2000/svg">
<rect width="70" height="20" rx="10" fill="#3526C9"/>
<path d="M18.368 9.504H18.96V12.616C18.96 12.896 19.024 12.936 19.336 12.936C19.48 12.936 20.2 12.936 20.392 12.936C20.712 12.936 20.76 12.728 20.8 11.552C20.936 11.664 21.176 11.76 21.336 11.808C21.272 13.128 21.112 13.488 20.432 13.488C20.288 13.488 19.408 13.488 19.264 13.488C18.552 13.488 18.368 13.288 18.368 12.608V9.504ZM17.272 10.192L17.816 10.312C17.712 11.184 17.512 12.24 17.096 12.88L16.568 12.64C16.96 12.024 17.176 11.04 17.272 10.192ZM18.496 8.552L18.904 8.16C19.544 8.48 20.36 8.976 20.776 9.344L20.344 9.792C19.952 9.424 19.144 8.896 18.496 8.552ZM21.04 10.232L21.576 10.016C22.112 10.84 22.616 11.92 22.76 12.64L22.176 12.88C22.048 12.168 21.568 11.064 21.04 10.232ZM18.92 6.288H19.536V7.648H18.92V6.288ZM16.248 7.32H22.608V7.896H16.248V7.32ZM15.96 7.32H16.56V9.392C16.56 10.624 16.448 12.432 15.76 13.648C15.656 13.544 15.392 13.376 15.248 13.312C15.904 12.16 15.96 10.544 15.96 9.392V7.32ZM25.368 9.904H28.68V10.424H25.368V9.904ZM25.024 12.856H29.016V13.384H25.024V12.856ZM26.984 8.664C26.28 9.512 24.952 10.456 23.584 11.032C23.512 10.896 23.368 10.688 23.248 10.56C24.656 10.008 25.992 9.024 26.656 8.136H27.248C28.12 9.144 29.528 10 30.784 10.424C30.64 10.568 30.504 10.776 30.416 10.936C29.192 10.456 27.776 9.552 26.984 8.664ZM24.696 11.112H29.344V13.624H28.752V11.64H25.264V13.648H24.696V11.112ZM24.328 6.976H26.824V7.488H24.328V6.976ZM27.352 6.976H30.576V7.488H27.352V6.976ZM24.496 6.16L25.072 6.312C24.752 7.176 24.256 8.04 23.736 8.592C23.624 8.504 23.376 8.336 23.232 8.264C23.76 7.752 24.224 6.952 24.496 6.16ZM27.616 6.16L28.2 6.304C27.912 7.096 27.416 7.84 26.888 8.32C26.784 8.224 26.528 8.04 26.384 7.968C26.912 7.536 27.368 6.864 27.616 6.16ZM24.744 7.36L25.248 7.208C25.488 7.576 25.744 8.064 25.848 8.384L25.312 8.568C25.216 8.248 24.976 7.736 24.744 7.36ZM28.104 7.36L28.632 7.192C28.928 7.536 29.256 8.024 29.384 8.352L28.824 8.56C28.704 8.232 28.392 7.728 28.104 7.36ZM34.088 7.32H38.28V7.872H34.088V7.32ZM33.712 10.328H38.64V10.888H33.712V10.328ZM33.616 8.888H38.696V9.44H33.616V8.888ZM35.848 6.32H36.44V9.176H35.848V6.32ZM36.968 9.32H37.56V12.92C37.56 13.272 37.488 13.44 37.24 13.536C36.976 13.624 36.576 13.632 35.952 13.632C35.92 13.464 35.832 13.224 35.752 13.056C36.232 13.072 36.672 13.072 36.8 13.064C36.928 13.056 36.968 13.024 36.968 12.912V9.32ZM34.32 11.376L34.808 11.112C35.184 11.528 35.6 12.104 35.776 12.496L35.264 12.792C35.096 12.408 34.688 11.808 34.32 11.376ZM33.168 8.064L33.704 8.28C33.168 9.232 32.328 10.2 31.552 10.832C31.496 10.704 31.328 10.384 31.224 10.248C31.952 9.72 32.712 8.896 33.168 8.064ZM33.04 6.304L33.6 6.528C33.128 7.216 32.368 7.968 31.656 8.44C31.592 8.304 31.44 8.072 31.344 7.952C31.976 7.536 32.688 6.872 33.04 6.304ZM32.472 9.48L33.032 8.912L33.048 8.928V13.64H32.472V9.48ZM41.784 10.376H46.64V10.864H41.784V10.376ZM42.416 11.64L42.736 11.272C43.152 11.512 43.688 11.872 43.952 12.12L43.616 12.536C43.36 12.28 42.832 11.896 42.416 11.64ZM45.008 9.904L45.304 9.616C45.6 9.776 45.968 10.016 46.152 10.2L45.84 10.512C45.664 10.336 45.304 10.072 45.008 9.904ZM42.376 10.6H42.92C42.832 11.84 42.592 12.968 41.696 13.624C41.616 13.504 41.456 13.32 41.328 13.232C42.12 12.672 42.312 11.648 42.376 10.6ZM43.816 6.288H44.352C44.312 10.272 44.896 13.136 45.984 13.136C46.216 13.136 46.296 12.952 46.336 12.224C46.448 12.336 46.632 12.44 46.76 12.488C46.656 13.392 46.48 13.656 45.944 13.656C44.336 13.648 43.832 10.376 43.816 6.288ZM45.608 10.992L46.12 11.184C45.6 12.288 44.616 13.128 43.384 13.64C43.312 13.536 43.16 13.352 43.048 13.256C44.248 12.792 45.16 11.984 45.608 10.992ZM44.392 7.68L44.64 7.352C44.992 7.592 45.392 7.96 45.576 8.216L45.32 8.592C45.136 8.328 44.736 7.944 44.392 7.68ZM45.888 8.648L46.256 8.504C46.48 8.872 46.696 9.352 46.76 9.656L46.368 9.84C46.296 9.528 46.096 9.024 45.888 8.648ZM44.496 9.208C44.992 9.176 45.656 9.136 46.36 9.088V9.504C45.72 9.568 45.112 9.624 44.584 9.672L44.496 9.208ZM45.32 6.36L45.784 6.544C45.56 6.992 45.288 7.512 45.064 7.84L44.72 7.68C44.92 7.328 45.184 6.752 45.32 6.36ZM45.976 7.16L46.424 7.376C46.016 8.064 45.472 8.92 45.04 9.464L44.704 9.272C45.128 8.72 45.672 7.808 45.976 7.16ZM41.68 7.68L41.936 7.352C42.28 7.592 42.688 7.96 42.864 8.216L42.608 8.592C42.424 8.328 42.024 7.944 41.68 7.68ZM43.072 8.696L43.44 8.56C43.648 8.928 43.84 9.416 43.888 9.72L43.496 9.888C43.44 9.576 43.264 9.08 43.072 8.696ZM41.712 9.296C42.216 9.272 42.872 9.224 43.584 9.168V9.6C42.944 9.664 42.328 9.72 41.8 9.768L41.712 9.296ZM42.616 6.36L43.08 6.552C42.848 6.992 42.576 7.52 42.36 7.848L42.016 7.696C42.216 7.336 42.472 6.752 42.616 6.36ZM43.272 7.16L43.712 7.376C43.296 8.088 42.736 8.976 42.28 9.528L41.936 9.344C42.384 8.776 42.952 7.832 43.272 7.16ZM39.408 8.016H41.832V8.576H39.408V8.016ZM40.424 6.28H40.968V13.632H40.424V6.28ZM40.4 8.352L40.76 8.464C40.536 9.728 40.064 11.304 39.536 12.104C39.472 11.96 39.336 11.736 39.24 11.608C39.728 10.888 40.208 9.488 40.4 8.352ZM40.928 8.88C41.088 9.096 41.712 10.096 41.84 10.328L41.536 10.768C41.376 10.368 40.872 9.424 40.68 9.112L40.928 8.88ZM47.768 7.712H54.216V11.48H53.592V8.304H48.368V11.52H47.768V7.712ZM48.088 10.432H53.952V11.016H48.088V10.432ZM50.664 6.28H51.288V13.632H50.664V6.28Z" fill="white"/>
</svg>
