<svg width="38" height="21" viewBox="0 0 38 21" fill="none" xmlns="http://www.w3.org/2000/svg">
<rect width="38" height="21" rx="5" fill="#FF6A68"/>
<path d="M15.688 7.416L16.636 7.692C15.124 12.096 12.4 14.568 8.032 15.984C7.936 15.756 7.648 15.324 7.456 15.108C11.74 13.884 14.344 11.532 15.688 7.416ZM10.24 7.476C11.536 11.316 14.236 14.076 18.568 15.084C18.352 15.3 18.064 15.708 17.92 15.972C13.468 14.808 10.828 11.952 9.352 7.752L10.24 7.476ZM7.6 6.96H18.448V7.848H7.6V6.96ZM12.52 4.92H13.444V7.5H12.52V4.92ZM21.796 8.4H27.556V9.228H21.796V8.4ZM19.84 11.412H30.184V12.264H19.84V11.412ZM24.532 10.512H25.48V14.844C25.48 15.384 25.348 15.648 24.916 15.792C24.496 15.936 23.86 15.948 22.84 15.948C22.78 15.684 22.6 15.3 22.444 15.048C23.26 15.072 24.04 15.072 24.256 15.06C24.472 15.048 24.532 15 24.532 14.832V10.512ZM27.28 8.4H27.52L27.724 8.352L28.312 8.796C27.52 9.672 26.332 10.608 25.228 11.172C25.12 11.004 24.88 10.776 24.736 10.656C25.672 10.152 26.74 9.252 27.28 8.58V8.4ZM24.508 4.908H25.456V6.84H24.508V4.908ZM19.96 6.228H30.028V9.048H29.104V7.08H20.848V9.048H19.96V6.228Z" fill="white"/>
</svg>
